<svg width="126.10625px" height="153.2px" xmlns="http://www.w3.org/2000/svg" viewBox="186.946875 -1.5999999999999943 126.10625 153.2" style="background:#f2eddb" preserveAspectRatio="xMidYMid"><defs><filter id="editing-vintage" x="-100%" y="-100%" width="300%" height="300%"><feConvolveMatrix in="SourceGraphic" result="extrude" order="9,9" divisor="1" kernelMatrix="1,0,0,0,0,0,0,0,0,0,1,0,0,0,0,0,0,0,0,0,1,0,0,0,0,0,0,0,0,0,1,0,0,0,0,0,0,0,0,0,1,0,0,0,0,0,0,0,0,0,1,0,0,0,0,0,0,0,0,0,1,0,0,0,0,0,0,0,0,0,1,0,0,0,0,0,0,0,0,0,1"> </feConvolveMatrix><feFlood flood-color="#900" result="flood-extrude"></feFlood><feComposite operator="in" in="flood-extrude" in2="extrude" result="extrude-color"></feComposite><feOffset dx="5" dy="5" in="extrude-color" result="extrude-offset"></feOffset><feColorMatrix in="SourceGraphic" result="stroke" type="matrix" values="0 0 0 0 0 0 0 0 0 0 0 0 0 0 0 0 1 0 0 0 "></feColorMatrix><feColorMatrix in="SourceGraphic" result="fill" type="matrix" values="0 0 0 0 0 0 0 0 0 0 0 0 0 0 0 1 0 0 1 0 "></feColorMatrix><feConvolveMatrix in="stroke" result="inner-shadow" order="5,5" divisor="1" kernelMatrix="1 0 0 0 0 0 1 0 0 0 0 0 1 0 0 0 0 0 1 0 0 0 0 0 1 "></feConvolveMatrix><feOffset dx="1" dy="1" in="inner-shadow" result="offset"></feOffset><feComposite operator="in" in="offset" in2="SourceAlpha" result="comp"></feComposite><feFlood flood-color="#000" result="flood3"></feFlood><feComposite operator="in" in="flood3" in2="comp" result="comp2"></feComposite><feColorMatrix in="comp2" result="comp3" type="matrix" values="1 0 0 0 0 0 1 0 0 0 0 0 1 0 0 0 0 0 0.5 0 "></feColorMatrix><feFlood flood-color="#f00" result="flood1"></feFlood><feComposite operator="in" in="flood1" in2="fill" result="fill2"></feComposite><feFlood flood-color="#fff" result="flood2"></feFlood><feComposite operator="in" in="flood2" in2="stroke" result="stroke2"></feComposite><feMerge result="obj"><feMergeNode in="extrude-offset"></feMergeNode><feMergeNode in="fill2"></feMergeNode><feMergeNode in="comp3"></feMergeNode></feMerge><feConvolveMatrix in="SourceAlpha" result="shadow" order="9,9" divisor="1" kernelMatrix="1,0,0,0,0,0,0,0,0,0,1,0,0,0,0,0,0,0,0,0,1,0,0,0,0,0,0,0,0,0,1,0,0,0,0,0,0,0,0,0,1,0,0,0,0,0,0,0,0,0,1,0,0,0,0,0,0,0,0,0,1,0,0,0,0,0,0,0,0,0,1,0,0,0,0,0,0,0,0,0,1"></feConvolveMatrix><feOffset dx="15" dy="15" in="shadow" result="shadow-offset"></feOffset><feFlood flood-color="#444" result="flood-shadow"></feFlood><feComposite operator="in" in="flood-shadow" in2="shadow-offset" result="shadow-color"></feComposite><feMerge><feMergeNode in="shadow-color"></feMergeNode><feMergeNode in="obj"></feMergeNode></feMerge></filter></defs><g transform="translate(-9,-9)"><g filter="url(#editing-vintage)"><g transform="translate(211.31000745296478, 95.44499969482422)"><path d="M14.91-39.87L14.91-39.87L14.91-39.87Q22.27-39.87 26.11-36.83L26.11-36.83L26.11-36.83Q29.95-33.79 29.95-28.67L29.95-28.67L29.95-28.67Q29.95-25.60 28.32-23.46L28.32-23.46L28.32-23.46Q26.69-21.31 24.45-20.22L24.45-20.22L24.45-20.22Q25.79-19.71 26.94-18.94L26.94-18.94L26.94-18.94Q28.10-18.18 28.99-17.02L28.99-17.02L28.99-17.02Q29.89-15.87 30.40-14.34L30.40-14.34L30.40-14.34Q30.91-12.80 30.91-10.75L30.91-10.75L30.91-10.75Q30.91-8 29.73-5.82L29.73-5.82L29.73-5.82Q28.54-3.65 26.43-2.11L26.43-2.11L26.43-2.11Q24.32-0.58 21.41 0.22L21.41 0.22L21.41 0.22Q18.50 1.02 15.04 1.02L15.04 1.02L15.04 1.02Q8.38 1.02 4.99-0.83L4.99-0.83L4.99-0.83Q1.60-2.69 1.60-5.57L1.60-5.57L1.60-5.57Q1.60-7.30 2.43-8.54L2.43-8.54L2.43-8.54Q3.26-9.79 4.48-10.50L4.48-10.50L4.48-10.50Q5.76-9.60 7.90-8.61L7.90-8.61L7.90-8.61Q10.05-7.62 13.50-7.62L13.50-7.62L13.50-7.62Q16.77-7.62 18.34-8.77L18.34-8.77L18.34-8.77Q19.90-9.92 19.90-11.78L19.90-11.78L19.90-11.78Q19.90-13.63 18.66-14.59L18.66-14.59L18.66-14.59Q17.41-15.55 14.34-15.55L14.34-15.55L8.32-15.55L8.32-15.55Q7.87-16.26 7.55-17.28L7.55-17.28L7.55-17.28Q7.23-18.30 7.23-19.71L7.23-19.71L7.23-19.71Q7.23-21.18 7.52-22.24L7.52-22.24L7.52-22.24Q7.81-23.30 8.32-24L8.32-24L14.34-24L14.34-24Q18.94-24 18.94-27.52L18.94-27.52L18.94-27.52Q18.94-29.18 17.47-30.21L17.47-30.21L17.47-30.21Q16-31.23 13.06-31.23L13.06-31.23L13.06-31.23Q10.43-31.23 8.45-30.62L8.45-30.62L8.45-30.62Q6.46-30.02 5.18-29.12L5.18-29.12L5.18-29.12Q4.10-29.89 3.39-31.01L3.39-31.01L3.39-31.01Q2.69-32.13 2.69-33.66L2.69-33.66L2.69-33.66Q2.69-36.86 6.02-38.37L6.02-38.37L6.02-38.37Q9.34-39.87 14.91-39.87ZM54.27 1.02L54.27 1.02L54.27 1.02Q53.18 1.02 51.78 0.96L51.78 0.96L51.78 0.96Q50.37 0.90 48.86 0.70L48.86 0.70L48.86 0.70Q47.36 0.51 45.86 0.22L45.86 0.22L45.86 0.22Q44.35-0.06 43.07-0.58L43.07-0.58L43.07-0.58Q39.55-1.92 39.55-5.25L39.55-5.25L39.55-15.10L35.26-15.10L35.26-15.10Q34.88-15.81 34.50-16.93L34.50-16.93L34.50-16.93Q34.11-18.05 34.11-19.26L34.11-19.26L34.11-19.26Q34.11-21.70 35.17-22.72L35.17-22.72L35.17-22.72Q36.22-23.74 37.89-23.74L37.89-23.74L39.55-23.74L39.55-35.14L39.55-35.14Q39.55-36.48 40.29-37.22L40.29-37.22L40.29-37.22Q41.02-37.95 42.30-38.40L42.30-38.40L42.30-38.40Q45.06-39.30 48.13-39.58L48.13-39.58L48.13-39.58Q51.20-39.87 53.63-39.87L53.63-39.87L53.63-39.87Q58.62-39.87 62.69-38.66L62.69-38.66L62.69-38.66Q66.75-37.44 69.66-34.91L69.66-34.91L69.66-34.91Q72.58-32.38 74.18-28.54L74.18-28.54L74.18-28.54Q75.78-24.70 75.78-19.46L75.78-19.46L75.78-19.46Q75.78-14.34 74.24-10.53L74.24-10.53L74.24-10.53Q72.70-6.72 69.86-4.13L69.86-4.13L69.86-4.13Q67.01-1.54 63.04-0.26L63.04-0.26L63.04-0.26Q59.07 1.02 54.27 1.02ZM50.69-15.10L50.69-8.32L50.69-8.32Q51.39-8.19 52.42-8.10L52.42-8.10L52.42-8.10Q53.44-8 54.34-8L54.34-8L54.34-8Q56.51-8 58.34-8.64L58.34-8.64L58.34-8.64Q60.16-9.28 61.47-10.62L61.47-10.62L61.47-10.62Q62.78-11.97 63.52-14.11L63.52-14.11L63.52-14.11Q64.26-16.26 64.26-19.26L64.26-19.26L64.26-19.26Q64.26-25.02 61.57-27.94L61.57-27.94L61.57-27.94Q58.88-30.85 54.40-30.85L54.40-30.85L54.40-30.85Q53.50-30.85 52.58-30.78L52.58-30.78L52.58-30.78Q51.65-30.72 50.69-30.59L50.69-30.59L50.69-23.74L56.32-23.74L56.32-23.74Q56.83-23.04 57.15-21.92L57.15-21.92L57.15-21.92Q57.47-20.80 57.47-19.58L57.47-19.58L57.47-19.58Q57.47-17.15 56.45-16.13L56.45-16.13L56.45-16.13Q55.42-15.10 53.70-15.10L53.70-15.10L50.69-15.10Z" fill="#f00" stroke="#0f0" stroke-width="1.8"></path></g></g><g><g transform="translate(211.31000745296478, 95.44500732421875)"><path d="M14.91-39.87L14.91-39.87L14.91-39.87Q22.27-39.87 26.11-36.83L26.11-36.83L26.11-36.83Q29.95-33.79 29.95-28.67L29.95-28.67L29.95-28.67Q29.95-25.60 28.32-23.46L28.32-23.46L28.32-23.46Q26.69-21.31 24.45-20.22L24.45-20.22L24.45-20.22Q25.79-19.71 26.94-18.94L26.94-18.94L26.94-18.94Q28.10-18.18 28.99-17.02L28.99-17.02L28.99-17.02Q29.89-15.87 30.40-14.34L30.40-14.34L30.40-14.34Q30.91-12.80 30.91-10.75L30.91-10.75L30.91-10.75Q30.91-8 29.73-5.82L29.73-5.82L29.73-5.82Q28.54-3.65 26.43-2.11L26.43-2.11L26.43-2.11Q24.32-0.58 21.41 0.22L21.41 0.22L21.41 0.22Q18.50 1.02 15.04 1.02L15.04 1.02L15.04 1.02Q8.38 1.02 4.99-0.83L4.99-0.83L4.99-0.83Q1.60-2.69 1.60-5.57L1.60-5.57L1.60-5.57Q1.60-7.30 2.43-8.54L2.43-8.54L2.43-8.54Q3.26-9.79 4.48-10.50L4.48-10.50L4.48-10.50Q5.76-9.60 7.90-8.61L7.90-8.61L7.90-8.61Q10.05-7.62 13.50-7.62L13.50-7.62L13.50-7.62Q16.77-7.62 18.34-8.77L18.34-8.77L18.34-8.77Q19.90-9.92 19.90-11.78L19.90-11.78L19.90-11.78Q19.90-13.63 18.66-14.59L18.66-14.59L18.66-14.59Q17.41-15.55 14.34-15.55L14.34-15.55L8.32-15.55L8.32-15.55Q7.87-16.26 7.55-17.28L7.55-17.28L7.55-17.28Q7.23-18.30 7.23-19.71L7.23-19.71L7.23-19.71Q7.23-21.18 7.52-22.24L7.52-22.24L7.52-22.24Q7.81-23.30 8.32-24L8.32-24L14.34-24L14.34-24Q18.94-24 18.94-27.52L18.94-27.52L18.94-27.52Q18.94-29.18 17.47-30.21L17.47-30.21L17.47-30.21Q16-31.23 13.06-31.23L13.06-31.23L13.06-31.23Q10.43-31.23 8.45-30.62L8.45-30.62L8.45-30.62Q6.46-30.02 5.18-29.12L5.18-29.12L5.18-29.12Q4.10-29.89 3.39-31.01L3.39-31.01L3.39-31.01Q2.69-32.13 2.69-33.66L2.69-33.66L2.69-33.66Q2.69-36.86 6.02-38.37L6.02-38.37L6.02-38.37Q9.34-39.87 14.91-39.87ZM54.27 1.02L54.27 1.02L54.27 1.02Q53.18 1.02 51.78 0.96L51.78 0.96L51.78 0.96Q50.37 0.90 48.86 0.70L48.86 0.70L48.86 0.70Q47.36 0.51 45.86 0.22L45.86 0.22L45.86 0.22Q44.35-0.06 43.07-0.58L43.07-0.58L43.07-0.58Q39.55-1.92 39.55-5.25L39.55-5.25L39.55-15.10L35.26-15.10L35.26-15.10Q34.88-15.81 34.50-16.93L34.50-16.93L34.50-16.93Q34.11-18.05 34.11-19.26L34.11-19.26L34.11-19.26Q34.11-21.70 35.17-22.72L35.17-22.72L35.17-22.72Q36.22-23.74 37.89-23.74L37.89-23.74L39.55-23.74L39.55-35.14L39.55-35.14Q39.55-36.48 40.29-37.22L40.29-37.22L40.29-37.22Q41.02-37.95 42.30-38.40L42.30-38.40L42.30-38.40Q45.06-39.30 48.13-39.58L48.13-39.58L48.13-39.58Q51.20-39.87 53.63-39.87L53.63-39.87L53.63-39.87Q58.62-39.87 62.69-38.66L62.69-38.66L62.69-38.66Q66.75-37.44 69.66-34.91L69.66-34.91L69.66-34.91Q72.58-32.38 74.18-28.54L74.18-28.54L74.18-28.54Q75.78-24.70 75.78-19.46L75.78-19.46L75.78-19.46Q75.78-14.34 74.24-10.53L74.24-10.53L74.24-10.53Q72.70-6.72 69.86-4.13L69.86-4.13L69.86-4.13Q67.01-1.54 63.04-0.26L63.04-0.26L63.04-0.26Q59.07 1.02 54.27 1.02ZM50.69-15.10L50.69-8.32L50.69-8.32Q51.39-8.19 52.42-8.10L52.42-8.10L52.42-8.10Q53.44-8 54.34-8L54.34-8L54.34-8Q56.51-8 58.34-8.64L58.34-8.64L58.34-8.64Q60.16-9.28 61.47-10.62L61.47-10.62L61.47-10.62Q62.78-11.97 63.52-14.11L63.52-14.11L63.52-14.11Q64.26-16.26 64.26-19.26L64.26-19.26L64.26-19.26Q64.26-25.02 61.57-27.94L61.57-27.94L61.57-27.94Q58.88-30.85 54.40-30.85L54.40-30.85L54.40-30.85Q53.50-30.85 52.58-30.78L52.58-30.78L52.58-30.78Q51.65-30.72 50.69-30.59L50.69-30.59L50.69-23.74L56.32-23.74L56.32-23.74Q56.83-23.04 57.15-21.92L57.15-21.92L57.15-21.92Q57.47-20.80 57.47-19.58L57.47-19.58L57.47-19.58Q57.47-17.15 56.45-16.13L56.45-16.13L56.45-16.13Q55.42-15.10 53.70-15.10L53.70-15.10L50.69-15.10Z" fill="none" stroke="#fff" stroke-width="2.1"></path></g></g></g><style>text {
  font-size: 64px;
  font-family: Arial Black;
  dominant-baseline: central;
  text-anchor: middle;
}</style></svg>